<?xml version="1.0" encoding="UTF-8" standalone="no"?>
<svg
   xmlns:dc="http://purl.org/dc/elements/1.1/"
   xmlns:cc="http://creativecommons.org/ns#"
   xmlns:rdf="http://www.w3.org/1999/02/22-rdf-syntax-ns#"
   xmlns:svg="http://www.w3.org/2000/svg"
   xmlns="http://www.w3.org/2000/svg"
   xmlns:sodipodi="http://sodipodi.sourceforge.net/DTD/sodipodi-0.dtd"
   xmlns:inkscape="http://www.inkscape.org/namespaces/inkscape"
   width="20"
   height="19"
   viewBox="0 0 20 19"
   fill="none"
   version="1.1"
   id="svg4"
   sodipodi:docname="fav-false.svg"
   inkscape:version="0.92.4 (5da689c313, 2019-01-14)">
  <metadata
     id="metadata10">
    <rdf:RDF>
      <cc:Work
         rdf:about="">
        <dc:format>image/svg+xml</dc:format>
        <dc:type
           rdf:resource="http://purl.org/dc/dcmitype/StillImage" />
        <dc:title></dc:title>
      </cc:Work>
    </rdf:RDF>
  </metadata>
  <defs
     id="defs8" />
  <sodipodi:namedview
     pagecolor="#ffffff"
     bordercolor="#666666"
     borderopacity="1"
     objecttolerance="10"
     gridtolerance="10"
     guidetolerance="10"
     inkscape:pageopacity="0"
     inkscape:pageshadow="2"
     inkscape:window-width="1920"
     inkscape:window-height="1021"
     id="namedview6"
     showgrid="false"
     inkscape:zoom="12.421053"
     inkscape:cx="10"
     inkscape:cy="9.5"
     inkscape:window-x="-8"
     inkscape:window-y="-8"
     inkscape:window-maximized="1"
     inkscape:current-layer="svg4" />
  <path
     d="M14.0979 1.44916e-05C12.795 0 11.9551 0.155217 10.9924 0.626465C10.6359 0.800937 10.3015 1.01105 9.99095 1.25618C9.69235 1.0248 9.37131 0.824326 9.0296 0.655321C8.04816 0.169898 7.16523 0 5.90907 0C2.54477 0 0.0999756 2.78754 0.0999756 6.40789C0.0999756 9.14198 1.62442 11.7831 4.46393 14.3369C5.95438 15.6774 7.85737 17.004 9.22022 17.7097L9.99998 18.1135L10.7797 17.7097C12.1426 17.004 14.0456 15.6774 15.536 14.3369C18.3755 11.7831 19.9 9.14198 19.9 6.40789C19.9 2.82586 17.4321 0.0138225 14.0979 1.44916e-05ZM18.1 6.40793C18.1 8.54995 16.8276 10.7544 14.3324 12.9986C12.972 14.2221 11.2231 15.4449 10 16.0864C8.77695 15.4449 7.02806 14.2221 5.66767 12.9986C3.17246 10.7544 1.90002 8.54995 1.90002 6.40793C1.90002 3.73298 3.5953 1.80004 5.90911 1.80004C6.90787 1.80004 7.52333 1.91847 8.23164 2.2688C8.65002 2.47573 9.01981 2.74897 9.3399 3.09043L10.0021 3.79687L10.6583 3.08483C10.9856 2.72969 11.3608 2.45023 11.7837 2.24322C12.4713 1.90668 13.0483 1.80004 14.0942 1.80004C16.3794 1.80952 18.1 3.7701 18.1 6.40793Z"
     id="path2"
     clip-rule="evenodd"
     fill-rule="evenodd"
     fill="black" />
</svg>
